<?xml version="1.0" encoding="iso-8859-1"?>
<!-- Generator: Adobe Illustrator 19.0.0, SVG Export Plug-In . SVG Version: 6.00 Build 0)  -->
<svg version="1.1" id="Layer_1" xmlns="http://www.w3.org/2000/svg" xmlns:xlink="http://www.w3.org/1999/xlink" x="0px" y="0px"
	 viewBox="0 0 512 512" style="enable-background:new 0 0 512 512;" xml:space="preserve">
<path style="fill:#FFFFFF;" d="M343.555,71.509V47.843c0-17.687-14.082-32.024-31.769-32.024c-7.059,0-13.398,2.354-18.691,6.224
	c-9.903-8.823-22.853-14.23-37.16-14.23c-16.862,0-31.913,7.482-42.187,19.265c-4.199-2.023-8.578-3.253-13.552-3.253
	c-17.686,0-31.752,14.337-31.752,32.024v15.66h20.286c10.622,0,19.322,8.964,19.322,19.586v20.796
	c0,19.85,17.827,35.481,38.412,31.36c15.094-3.023,25.169-17.173,25.169-32.566v-19.59c0-10.622,8.988-19.586,19.61-19.586H343.555z
	"/>
<path style="fill:#F7931E;" d="M207.964,111.891c0,18.724,16.069,33.695,35.17,31.873c16.65-1.587,28.878-16.524,28.878-33.25
	V91.095c0-10.622,8.611-19.233,19.233-19.233h60.826v40.03c16.012,6.602,32.024,27.129,32.024,48.036s-13.379,38.642-32.024,45.244
	l-8.006,299.013H167.934l-8.006-296.22c-18.645-6.602-32.024-27.129-32.024-48.036s13.379-41.434,32.024-48.036V71.861h28.802
	c10.622,0,19.233,8.611,19.233,19.233v20.797H207.964z"/>
<path style="fill:#FBB03B;" d="M351.893,111.891V71.509h-56.285v40.382c16.677,6.602,33.48,27.129,33.48,48.036
	s-12.651,38.585-31.295,45.186l-7.277,298.955h53.551l8.006-298.955c18.645-6.602,31.934-24.309,31.934-45.216
	S368.57,118.493,351.893,111.891z"/>
<path style="fill:#FFFFFF;" d="M351.893,113.023V71.509H160.108v41.514c-13.55,3.571-24.196,15.813-24.196,30.405h24.018h40.03
	h112.083h40.03h24.018C376.09,128.836,365.443,116.594,351.893,113.023z"/>
<g>
	<path style="fill:#F2F2F2;" d="M269.206,22.043c4.562-3.335,10.027-5.441,15.961-5.987c-8.493-5.215-18.467-8.243-29.166-8.243
		c-4.163,0-8.213,0.463-12.114,1.327C253.465,11.234,262.136,15.745,269.206,22.043z"/>
	<path style="fill:#F2F2F2;" d="M311.786,15.82c-4.217,0-8.286,0.922-11.957,2.423c11.647,4.793,19.752,16.225,19.752,29.6v23.665
		h23.973V47.843C343.555,30.157,329.473,15.82,311.786,15.82z"/>
	<path style="fill:#F2F2F2;" d="M247.662,91.095v19.59c0,13.452-7.71,25.95-19.77,30.908c5.582,2.244,11.825,2.984,18.446,1.657
		c15.094-3.022,25.297-17.173,25.297-32.565v-19.59c0-10.622,8.988-19.586,19.61-19.586h-24.018
		C256.605,71.509,247.662,80.473,247.662,91.095z"/>
	<path style="fill:#F2F2F2;" d="M351.893,113.023V71.509h-39.608v41.514c13.55,3.571,23.774,15.813,23.774,30.405h16.012h24.018
		C376.09,128.836,365.443,116.594,351.893,113.023z"/>
</g>
<path d="M351.893,55.874h-15.635v-8.03c0-13.348-10.861-24.207-24.212-24.207c-5.076,0-9.988,1.63-14.209,4.716l-5.099,3.727
	l-4.715-4.202c-8.865-7.898-20.239-12.247-32.023-12.247c-13.894,0-27.135,6.045-36.326,16.586l-3.916,4.491l-5.368-2.585
	c-3.41-1.643-6.92-2.469-10.429-2.469c-13.346,0-24.204,10.668-24.204,24.218h-15.635c0-21.889,17.871-39.853,39.838-39.853
	c3.991,0,7.942,0.621,11.803,1.857C223.628,6.457,239.461,0,256.001,0c13.655,0,26.884,4.396,37.834,12.482
	c5.638-2.943,11.835-4.478,18.212-4.478c21.971,0,39.847,17.873,39.847,39.84V55.874z"/>
<g>
	<rect x="168.448" y="168.448" style="fill:#FFFFFF;" width="15.635" height="15.635"/>
	<rect x="199.718" y="175.744" style="fill:#FFFFFF;" width="16.677" height="15.635"/>
	<rect x="264.341" y="256.003" style="fill:#FFFFFF;" width="15.635" height="15.635"/>
	<rect x="208.056" y="288.314" style="fill:#FFFFFF;" width="15.635" height="15.635"/>
	<rect x="264.341" y="320.626" style="fill:#FFFFFF;" width="15.635" height="15.635"/>
	<rect x="192.422" y="351.895" style="fill:#FFFFFF;" width="15.635" height="47.946"/>
	<rect x="232.029" y="408.18" style="fill:#FFFFFF;" width="15.635" height="15.635"/>
	<rect x="271.637" y="423.815" style="fill:#FFFFFF;" width="16.677" height="15.635"/>
	<rect x="327.922" y="392.546" style="fill:#FFFFFF;" width="15.635" height="15.635"/>
	<rect x="312.288" y="168.448" style="fill:#FFFFFF;" width="15.635" height="15.635"/>
	<rect x="319.584" y="279.976" style="fill:#FFFFFF;" width="16.677" height="15.635"/>
	<rect x="160.11" y="232.029" style="fill:#FFFFFF;" width="23.973" height="15.635"/>
	<rect x="199.718" y="248.706" style="fill:#FFFFFF;" width="16.677" height="15.635"/>
	<rect x="192.422" y="440.492" style="fill:#FFFFFF;" width="15.635" height="15.635"/>
	<rect x="295.611" y="351.895" style="fill:#FFFFFF;" width="16.677" height="15.635"/>
	<rect x="192.422" y="472.804" style="fill:#FFFFFF;" width="127.162" height="15.635"/>
</g>
<path d="M239.8,55.874h-15.635c0-13.55,10.989-23.854,23.497-23.854v15.635C243.493,47.655,239.8,51.705,239.8,55.874z"/>
<path d="M359.889,107.011V64.044h-68.644c-14.917,0-27.051,12.136-27.051,27.051v19.42c0,13.114-9.577,24.3-21.803,25.468
	c-6.935,0.667-13.573-1.53-18.679-6.174c-5.04-4.582-7.93-11.112-7.93-17.917V91.095c0-14.917-12.136-27.051-27.051-27.051h-36.62
	v42.678c-18.841,9.287-32.024,30.756-32.024,53.206c0,22.504,13.249,44.022,32.163,53.273l8.076,298.8h191.351l8.074-301.54
	c19.441-9.115,32.163-28.787,32.163-50.532C391.913,137.079,376.358,116.195,359.889,107.011z M291.245,79.679h53.009v24.142
	h-64.425V91.095C279.829,84.799,284.951,79.679,291.245,79.679z M349.463,197.801l-5.061,1.793l-7.947,296.773H175.543
	l-7.595-281.017h96.39v-15.635H160.343c-14.182-6.237-24.622-22.877-24.622-39.786c0-2.741,0.276-5.475,0.796-8.16h63.197v-15.635
	h-57.062c4.728-7.657,11.54-13.749,19.375-16.677h30.391v-15.635h-24.673V79.679h20.985c6.295,0,11.416,5.121,11.416,11.416v20.796
	c0,11.201,4.756,21.948,13.047,29.486c8.285,7.533,19.475,11.237,30.683,10.169c17.236-1.644,31.269-15.058,34.981-32.091h70.999
	c6.685,2.989,13.533,9.08,18.582,16.677h-88.466v15.635h95.352c0.616,2.69,0.953,5.425,0.953,8.16
	C376.278,176.902,365.502,192.123,349.463,197.801z"/>
<g>
</g>
<g>
</g>
<g>
</g>
<g>
</g>
<g>
</g>
<g>
</g>
<g>
</g>
<g>
</g>
<g>
</g>
<g>
</g>
<g>
</g>
<g>
</g>
<g>
</g>
<g>
</g>
<g>
</g>
</svg>
